<svg width="101" height="92" viewBox="0 0 101 92" fill="none" xmlns="http://www.w3.org/2000/svg">
<g filter="url(#filter0_d_197_1307)">
<path d="M25.8867 51.3703C26.5505 50.3708 27.3123 49.4399 28.1609 48.5916L39.2748 37.4805L39.6514 37.1226C45.5087 31.5567 54.7486 31.716 60.4105 37.4805L71.9816 48.4059C73.0098 49.3768 73.92 50.4654 74.6933 51.6493L79.719 59.3433C88.9214 73.4314 72.7496 90.2701 58.2955 81.6503C53.309 78.6766 47.0942 78.6632 42.0936 81.6132C27.5445 90.1964 11.3926 73.1959 20.7365 59.1256L25.8867 51.3703Z" fill="#56BCBE"/>
<path d="M4.01733 35.3346C3.92997 33.8694 4.17374 32.4033 4.73057 31.0452L6.12907 27.6341C7.50445 24.2794 11.421 22.7745 14.6897 24.3446C15.4274 24.6989 16.089 25.1935 16.6375 25.8008L18.5143 27.8784C21.1344 30.7788 23.3554 34.016 25.1186 37.5041C27.471 42.158 25.7161 47.8385 21.1484 50.3557L19.6907 51.159C19.0304 51.5228 18.3321 51.813 17.6084 52.0242C11.2692 53.8745 4.85338 49.3571 4.46044 42.7666L4.01733 35.3346Z" fill="#56BCBE"/>
<path d="M96.9827 35.6203C97.07 34.1551 96.8262 32.6891 96.2694 31.3309L94.8709 27.9199C93.4955 24.5652 89.579 23.0602 86.3103 24.6304C85.5726 24.9847 84.911 25.4793 84.3624 26.0866L82.4857 28.1641C79.8656 31.0646 77.6446 34.3018 75.8814 37.7899C73.529 42.4438 75.2839 48.1243 79.8516 50.6415L81.3093 51.4447C81.9696 51.8086 82.6678 52.0987 83.3916 52.31C89.7308 54.1603 96.1466 49.6429 96.5396 43.0523L96.9827 35.6203Z" fill="#56BCBE"/>
<path d="M28.4631 8.40804C28.908 6.90809 29.6935 5.53118 30.7583 4.38474L32.4758 2.53559C35.7315 -0.969665 41.3262 -0.819579 44.3892 2.85518C45.3765 4.03963 45.9972 5.48597 46.1756 7.01742L47.3377 16.9984L47.4666 21.1884C47.6536 27.2725 42.9763 32.4158 36.9017 32.8277C36.0934 32.8825 35.2795 32.8492 34.4784 32.728C27.7877 31.7163 23.5344 25.0268 25.458 18.5408L28.4631 8.40804Z" fill="#56BCBE"/>
<path d="M72.2282 8.40804C71.7833 6.90809 70.9978 5.53118 69.933 4.38474L68.2155 2.53559C64.9598 -0.969665 59.3651 -0.819579 56.3021 2.85518C55.3148 4.03963 54.6941 5.48597 54.5157 7.01742L53.3536 16.9984L53.2247 21.1884C53.0377 27.2725 57.715 32.4158 63.7896 32.8277C64.5979 32.8825 65.4118 32.8492 66.2129 32.728C72.9036 31.7163 77.1569 25.0268 75.2333 18.5408L72.2282 8.40804Z" fill="#56BCBE"/>
</g>
<defs>
<filter id="filter0_d_197_1307" x="0" y="0" width="101" height="92" filterUnits="userSpaceOnUse" color-interpolation-filters="sRGB">
<feFlood flood-opacity="0" result="BackgroundImageFix"/>
<feColorMatrix in="SourceAlpha" type="matrix" values="0 0 0 0 0 0 0 0 0 0 0 0 0 0 0 0 0 0 127 0" result="hardAlpha"/>
<feOffset dy="4"/>
<feGaussianBlur stdDeviation="2"/>
<feComposite in2="hardAlpha" operator="out"/>
<feColorMatrix type="matrix" values="0 0 0 0 0 0 0 0 0 0 0 0 0 0 0 0 0 0 0.25 0"/>
<feBlend mode="normal" in2="BackgroundImageFix" result="effect1_dropShadow_197_1307"/>
<feBlend mode="normal" in="SourceGraphic" in2="effect1_dropShadow_197_1307" result="shape"/>
</filter>
</defs>
</svg>
